<?xml version="1.0" standalone="no"?>
<!DOCTYPE svg PUBLIC "-//W3C//DTD SVG 20010904//EN"
 "http://www.w3.org/TR/2001/REC-SVG-20010904/DTD/svg10.dtd">
<svg version="1.0" xmlns="http://www.w3.org/2000/svg"
 width="310.000000pt" height="310.000000pt" viewBox="0 0 310.000000 310.000000"
 preserveAspectRatio="xMidYMid meet">
<metadata>
Created by potrace 1.14, written by Peter Selinger 2001-2017
</metadata>
<g transform="translate(0.000000,310.000000) scale(0.100000,-0.100000)"
fill="#000000" stroke="none">
<path d="M1342 3088 c-7 -7 -12 -9 -12 -5 0 4 -9 3 -20 -3 -14 -8 -20 -8 -20
0 0 6 -5 8 -10 5 -6 -4 -7 -12 -3 -18 4 -7 0 -6 -10 2 -9 7 -17 9 -17 4 0 -6
-11 -9 -25 -8 -14 2 -27 -1 -31 -6 -3 -5 -19 -9 -35 -9 -17 0 -28 -4 -25 -9 4
-5 -2 -8 -11 -7 -10 2 -36 -3 -58 -11 -22 -8 -46 -16 -53 -17 -8 -1 -18 -9
-23 -17 -7 -11 -9 -11 -9 -1 0 10 -4 9 -16 -3 -10 -9 -25 -14 -35 -12 -10 3
-17 1 -16 -3 1 -4 -1 -8 -6 -9 -4 0 -28 -12 -52 -27 -25 -14 -45 -22 -45 -17
0 4 -5 0 -11 -9 -5 -10 -17 -18 -27 -18 -9 0 -32 -15 -51 -32 -19 -18 -31 -26
-26 -18 6 9 2 7 -9 -5 -10 -11 -21 -19 -25 -19 -3 1 -5 -2 -3 -8 1 -5 -2 -7
-7 -4 -5 4 -19 -4 -30 -16 -12 -12 -21 -18 -21 -12 0 5 -5 1 -11 -8 -5 -10
-17 -18 -26 -18 -9 0 -14 -3 -10 -6 7 -8 -16 -33 -25 -28 -4 3 -12 -5 -18 -16
-6 -11 -16 -17 -22 -14 -8 5 -9 1 -4 -12 4 -10 4 -16 1 -12 -7 7 -81 -63 -78
-74 3 -7 -12 -12 -29 -9 -5 0 -7 -2 -6 -7 4 -14 -13 -52 -23 -52 -6 0 -7 6 -3
13 5 9 4 9 -5 1 -7 -6 -13 -20 -14 -32 0 -11 -5 -18 -9 -16 -4 3 -8 1 -8 -5 0
-6 -9 -19 -21 -30 -13 -11 -18 -24 -14 -32 5 -8 4 -10 -3 -5 -7 4 -12 1 -12
-9 0 -9 -4 -14 -9 -11 -5 3 -12 -6 -15 -20 -4 -15 -14 -33 -22 -41 -8 -8 -11
-19 -8 -25 4 -6 3 -8 -2 -5 -6 3 -16 -3 -23 -15 -10 -16 -10 -19 1 -12 7 4 2
-5 -12 -21 -14 -16 -18 -24 -11 -20 9 5 5 -5 -7 -22 -12 -17 -22 -36 -22 -42
0 -6 -6 -11 -12 -11 -9 0 -8 -4 2 -10 12 -7 12 -10 1 -10 -8 0 -11 -6 -7 -16
3 -8 2 -13 -3 -10 -5 3 -12 -1 -15 -10 -4 -9 -2 -13 5 -8 6 3 3 -5 -6 -20 -10
-14 -14 -26 -10 -26 4 0 2 -6 -4 -13 -6 -8 -8 -17 -4 -20 3 -4 0 -7 -7 -7 -7
0 -10 -3 -7 -6 3 -4 2 -15 -4 -25 -7 -14 -6 -19 3 -19 8 0 6 -5 -5 -11 -9 -6
-15 -15 -11 -20 3 -5 0 -17 -8 -26 -11 -14 -11 -16 2 -8 12 7 13 6 3 -6 -13
-16 -24 -71 -25 -126 -1 -18 -5 -30 -9 -28 -9 6 -6 -16 5 -34 6 -10 5 -12 -2
-7 -16 10 -14 -283 2 -303 9 -12 8 -13 -4 -6 -12 6 -13 5 -2 -6 16 -17 16 -32
0 -23 -10 6 -10 5 -1 -7 7 -9 11 -25 8 -37 -2 -12 1 -22 6 -22 5 0 9 -15 9
-32 0 -55 3 -68 16 -68 8 0 11 -6 7 -16 -6 -16 14 -90 30 -111 5 -7 6 -17 2
-23 -3 -5 -1 -10 5 -10 6 0 9 -4 5 -9 -3 -5 -1 -12 5 -16 6 -4 8 -11 5 -16 -4
-5 1 -16 9 -25 9 -8 16 -24 16 -35 0 -10 5 -19 11 -19 5 0 8 -4 4 -9 -3 -5 -1
-12 5 -16 6 -4 8 -10 5 -15 -3 -4 2 -11 11 -14 9 -4 14 -13 10 -21 -3 -9 1
-18 9 -21 8 -4 12 -10 9 -15 -3 -5 0 -9 6 -9 6 0 8 -4 5 -10 -3 -5 -2 -10 3
-10 6 0 15 -14 21 -30 5 -16 15 -30 21 -30 6 0 8 -4 5 -10 -3 -5 -2 -10 3 -10
5 0 14 -12 20 -26 7 -14 17 -22 22 -19 6 3 7 -1 4 -9 -4 -9 1 -18 10 -22 9 -3
16 -11 16 -16 0 -13 47 -58 54 -51 2 3 2 -4 -1 -16 -3 -12 -1 -21 6 -21 7 0
46 -34 88 -75 42 -41 81 -72 87 -68 6 3 8 3 4 -2 -8 -9 15 -35 32 -35 6 0 8
-5 4 -12 -5 -8 -2 -9 9 -5 11 4 17 1 17 -8 0 -8 6 -15 13 -15 7 0 22 -8 33
-18 10 -10 39 -29 64 -42 25 -14 47 -28 48 -33 2 -4 8 -5 13 -1 5 3 12 -2 15
-10 3 -9 10 -13 15 -10 5 3 12 -2 15 -11 5 -12 9 -13 14 -5 5 8 11 7 22 -4 9
-8 18 -12 22 -9 3 4 6 1 6 -5 0 -7 9 -12 20 -12 11 0 20 -4 20 -10 0 -5 13
-10 29 -10 16 0 34 -6 40 -14 7 -8 21 -13 32 -11 11 2 17 0 14 -6 -5 -7 23
-12 51 -8 4 0 10 -4 13 -9 6 -10 33 -16 116 -29 22 -3 45 -9 50 -13 6 -4 24
-6 40 -5 17 2 35 -1 40 -5 14 -11 316 -10 336 1 10 5 20 4 27 -3 9 -9 12 -9
12 -1 0 6 12 10 27 8 31 -3 55 4 49 14 -3 4 9 6 25 5 29 -2 76 10 113 28 14 7
16 6 10 -4 -6 -10 -5 -11 8 -1 8 7 18 10 21 6 4 -3 7 -2 7 4 0 5 7 10 15 11 8
1 22 3 30 4 8 1 15 5 15 10 0 5 4 7 9 3 5 -3 12 -1 16 5 4 6 11 8 16 5 5 -4 9
-1 9 4 0 6 3 10 8 9 13 -3 62 14 62 22 0 4 14 10 31 14 17 3 28 10 24 16 -3 5
0 7 8 4 8 -3 21 2 30 10 8 8 17 12 21 9 3 -3 8 1 12 10 3 9 12 13 20 10 8 -3
14 -1 14 5 0 5 9 12 21 15 12 3 18 10 14 16 -3 6 0 9 8 5 8 -3 17 2 20 10 4
10 13 13 23 9 12 -4 15 -3 10 5 -4 7 -3 12 2 12 4 0 18 9 30 20 12 12 22 18
22 15 0 -4 16 10 35 31 19 20 35 33 35 29 0 -5 10 4 23 18 12 15 29 27 36 27
8 0 12 2 9 6 -3 3 14 25 37 49 24 24 41 46 37 49 -3 3 0 6 7 6 7 0 9 5 6 10
-4 6 -3 10 2 9 18 -3 36 1 30 7 -3 4 2 14 11 23 10 9 11 12 3 6 -12 -9 -12 -7
-1 12 8 12 18 21 24 20 5 -1 12 7 14 17 2 11 14 28 26 37 11 10 17 18 13 19
-4 0 3 12 17 27 16 17 21 30 15 34 -8 5 -8 8 0 13 6 4 11 4 11 -1 0 -4 5 0 11
10 5 9 7 22 4 27 -3 6 1 10 10 10 9 0 13 4 10 10 -3 5 -1 10 5 10 6 0 9 4 5 9
-3 5 3 17 12 27 10 10 17 18 15 18 -2 1 2 15 8 31 7 17 13 35 14 42 1 7 5 16
9 19 4 4 7 16 7 26 0 10 5 18 10 18 6 0 9 3 9 8 -1 4 -1 9 1 12 1 3 3 16 6 29
2 14 10 31 17 40 10 12 9 13 -3 6 -12 -6 -13 -5 -2 6 6 7 12 24 12 37 0 14 4
21 11 16 7 -4 7 1 -1 16 -9 18 -9 21 0 15 10 -6 12 -1 8 19 -3 14 -1 26 3 26
5 0 6 7 3 15 -4 8 -2 15 3 15 5 0 8 18 7 40 -1 24 3 40 9 40 7 0 7 4 -1 12 -7
7 -12 17 -12 23 0 5 5 3 10 -5 13 -21 11 279 -2 303 -7 14 -7 17 1 13 6 -4 11
-2 11 3 0 6 -6 11 -12 11 -9 0 -8 4 2 10 12 8 12 10 1 10 -8 0 -11 3 -8 7 4 3
2 12 -4 20 -9 10 -8 13 2 13 10 0 10 3 2 11 -6 6 -9 17 -7 24 3 7 1 16 -4 19
-6 3 -8 15 -5 26 3 11 1 20 -5 20 -5 0 -9 8 -9 18 0 38 -3 53 -11 48 -4 -2 -7
8 -6 22 1 33 -5 54 -16 47 -4 -2 -5 7 -2 20 2 14 0 25 -6 25 -6 0 -9 9 -7 20
2 11 0 18 -6 15 -5 -4 -9 3 -9 14 0 12 -4 21 -10 21 -5 0 -7 6 -4 13 3 8 -2
20 -11 27 -8 7 -15 23 -15 37 0 16 -4 22 -12 17 -8 -5 -9 0 -6 14 4 15 2 22
-9 22 -8 0 -11 5 -8 10 3 6 2 10 -4 10 -6 0 -7 7 -4 17 4 11 3 14 -5 9 -11 -6
-14 -1 -11 20 0 3 -10 14 -22 25 -12 10 -18 19 -13 19 5 0 2 5 -6 10 -13 9
-13 10 0 11 11 0 10 2 -3 8 -10 4 -18 10 -17 15 1 4 -11 19 -27 33 -15 14 -22
22 -15 19 6 -4 12 -2 12 3 0 6 -7 11 -16 11 -9 0 -12 5 -8 12 5 8 2 9 -9 5 -9
-3 -16 -3 -16 1 4 25 -4 41 -21 47 -11 3 -20 12 -20 18 0 7 -9 19 -20 27 -11
8 -20 21 -20 29 0 8 -3 12 -6 8 -3 -3 -25 13 -49 36 -23 23 -51 48 -61 55 -10
7 -13 10 -5 6 9 -5 12 -3 7 4 -4 7 -13 12 -19 12 -7 0 -25 11 -41 25 -16 14
-33 25 -38 25 -4 0 -8 8 -8 18 0 13 -2 14 -9 4 -7 -11 -9 -11 -14 2 -4 9 -12
16 -19 16 -7 0 -25 11 -40 24 -14 14 -29 22 -32 19 -3 -4 -6 -1 -6 6 0 7 -5
11 -12 9 -6 -2 -20 4 -30 14 -10 10 -23 16 -28 13 -4 -3 -10 -1 -12 4 -1 5
-10 11 -18 13 -8 2 -21 9 -28 16 -7 6 -22 12 -32 12 -10 0 -22 5 -25 11 -4 6
-13 8 -21 5 -8 -3 -14 1 -14 10 0 8 -5 12 -10 9 -6 -4 -18 -1 -27 7 -14 11
-16 11 -8 -2 5 -9 -1 -7 -15 5 -14 12 -20 14 -15 5 7 -12 5 -12 -11 1 -10 9
-25 14 -31 12 -7 -3 -13 -1 -13 4 0 5 -8 9 -17 10 -25 2 -46 7 -58 15 -6 4
-23 5 -38 4 -15 -2 -31 2 -36 8 -6 7 -23 11 -38 10 -15 -1 -34 4 -42 10 -11 8
-13 8 -7 -1 8 -15 -3 -17 -23 -4 -9 6 -22 6 -34 -1 -14 -7 -18 -7 -12 1 5 9
-31 11 -134 10 -92 0 -139 -4 -135 -11 4 -6 -3 -5 -15 1 -14 8 -21 8 -21 1 0
-5 -5 -10 -11 -10 -5 0 -7 5 -4 10 8 14 2 13 -13 -2z"/>
</g>
</svg>
